# xmcd
#
# Track frame offsets:
# 150
# 21130
# 39397
# 52420
# 68280
# 86467
# 105467
# 123882
# 141235
# 156232
# 174425
# 191187
# 213680
# 230900
#
# Disc length: 3292 seconds
#
#
# Revision: 1
# Processed by: cddbd v1.5.2PL0 Copyright (c) Steve Scherf et al.
# Submitted via: FreeRIP 2.941 
#
DISCID=c50cda0e
DTITLE=Zezé di Camargo and Luciano - CD04 - Seleções do Reader´s Digest
DYEAR=2006
DGENRE=Country
TTITLE0=Felicidade, que saudade de você
TTITLE1=Vem ficar comigo
TTITLE2=Muda de vida
TTITLE3=Brigue comigo, mas não vá
TTITLE4=Solidão a três
TTITLE5=Flor de flamboyant
TTITLE6=Quando a cabeça não pensa
TTITLE7=O que é que eu faço?
TTITLE8=Quem sabe de mim sou eu
TTITLE9=Pior é te perder
TTITLE10=A ferro e fogo
TTITLE11=Pra não pensar em você
TTITLE12=Imperfeito
TTITLE13=Pra sempre
EXTD=++++++++++++++++\nripado por:\nrsilvino@terra.com.br
EXTT0=
EXTT1=
EXTT2=
EXTT3=
EXTT4=
EXTT5=
EXTT6=
EXTT7=
EXTT8=
EXTT9=
EXTT10=
EXTT11=
EXTT12=
EXTT13=
PLAYORDER=
